<svg xmlns="http://www.w3.org/2000/svg" viewBox="0 0 512 512">
  <path fill="#2196F3" d="M45.6 2.4L269.3 226.1 269.3 226.1 45.6 2.4C30.4-5.6 16 3.2 16 20.8V491.2C16 508.8 30.4 517.6 45.6 509.6L269.3 285.9 45.6 2.4Z"/>
  <path fill="#4CAF50" d="M45.6 2.4L269.3 226.1 340.8 154.6 82.4 5.6C70.4-1.6 57.6-1.6 45.6 2.4Z"/>
  <path fill="#FFC107" d="M82.4 506.4L340.8 357.4 269.3 285.9 45.6 509.6C57.6 513.6 70.4 513.6 82.4 506.4Z"/>
  <path fill="#F44336" d="M466.4 234.4L340.8 154.6 269.3 226.1 269.3 285.9 340.8 357.4 466.4 277.6C480 268.8 480 243.2 466.4 234.4Z"/>
</svg>
